<?xml version="1.0" encoding="utf-8"?>
<svg width="589" height="722" viewBox="0 0 589 722" xmlns="http://www.w3.org/2000/svg">
<rect id="frame" x="0" y="0" width="589" height="722" fill="#f7f7f7" stroke="none" stroke-width="0"/>

<!-- Association DF6 -->
<g class="page_0_MR0pfgoy diagram_page" visibility="visible">
	<line x1="297" y1="51" x2="210" y2="51" stroke="#e08214" stroke-width="2"/>
	<text x="231" y="68" fill="#542788" font-family="Verdana" font-size="12">0,N</text>
	<line x1="210" y1="169" x2="210" y2="51" stroke="#e08214" stroke-width="2"/>
	<text x="215" y="110" fill="#542788" font-family="Verdana" font-size="12">1,N</text>
	<g>
		<circle cx="210" cy="51" r="16" stroke="#e08214" stroke-width="2" fill="#fdb863"/>
		<text x="201" y="55" fill="#000" font-family="Verdana" font-size="12">DF</text>
	</g>
</g>

<!-- Association DF3 -->
<g class="page_0_MR0pfgoy diagram_page" visibility="visible">
	<line x1="124" y1="51" x2="124" y2="169" stroke="#e08214" stroke-width="2"/>
	<text x="129" y="93" fill="#542788" font-family="Verdana" font-size="12">1,N</text>
	<line x1="124" y1="270" x2="124" y2="169" stroke="#e08214" stroke-width="2"/>
	<text x="129" y="237" fill="#542788" font-family="Verdana" font-size="12">0,N</text>
	<g>
		<circle cx="124" cy="169" r="16" stroke="#e08214" stroke-width="2" fill="#fdb863"/>
		<text x="115" y="173" fill="#000" font-family="Verdana" font-size="12">DF</text>
	</g>
</g>

<!-- Association DF5 -->
<g class="page_0_MR0pfgoy diagram_page" visibility="visible">
	<line x1="38" y1="169" x2="38" y2="270" stroke="#e08214" stroke-width="2"/>
	<text x="43" y="211" fill="#542788" font-family="Verdana" font-size="12">1,N</text>
	<line x1="124" y1="270" x2="38" y2="270" stroke="#e08214" stroke-width="2"/>
	<text x="59" y="287" fill="#542788" font-family="Verdana" font-size="12">0,N</text>
	<g>
		<circle cx="38" cy="270" r="16" stroke="#e08214" stroke-width="2" fill="#fdb863"/>
		<text x="29" y="274" fill="#000" font-family="Verdana" font-size="12">DF</text>
	</g>
</g>

<!-- Association DF1 -->
<g class="page_0_MR0pfgoy diagram_page" visibility="visible">
	<line x1="210" y1="169" x2="210" y2="270" stroke="#e08214" stroke-width="2"/>
	<text x="215" y="237" fill="#542788" font-family="Verdana" font-size="12">1,N</text>
	<line x1="124" y1="270" x2="210" y2="270" stroke="#e08214" stroke-width="2"/>
	<text x="167" y="262" fill="#542788" font-family="Verdana" font-size="12">0,N</text>
	<g>
		<circle cx="210" cy="270" r="16" stroke="#e08214" stroke-width="2" fill="#fdb863"/>
		<text x="201" y="274" fill="#000" font-family="Verdana" font-size="12">DF</text>
	</g>
</g>

<!-- Association DF -->
<g class="page_0_MR0pfgoy diagram_page" visibility="visible">
	<line x1="38" y1="379" x2="124" y2="379" stroke="#e08214" stroke-width="2"/>
	<text x="72" y="396" fill="#542788" font-family="Verdana" font-size="12">1,N</text>
	<line x1="124" y1="270" x2="124" y2="379" stroke="#e08214" stroke-width="2"/>
	<text x="97" y="312" fill="#542788" font-family="Verdana" font-size="12">0,N</text>
	<g>
		<circle cx="124" cy="379" r="16" stroke="#e08214" stroke-width="2" fill="#fdb863"/>
		<text x="115" y="383" fill="#000" font-family="Verdana" font-size="12">DF</text>
	</g>
</g>

<!-- Association DF2 -->
<g class="page_0_MR0pfgoy diagram_page" visibility="visible">
	<line x1="210" y1="479" x2="210" y2="379" stroke="#e08214" stroke-width="2"/>
	<text x="215" y="412" fill="#542788" font-family="Verdana" font-size="12">1,N</text>
	<line x1="124" y1="270" x2="210" y2="379" stroke="#e08214" stroke-width="2"/>
	<text x="122.62" y="312" fill="#542788" font-family="Verdana" font-size="12">0,N</text>
	<g>
		<circle cx="210" cy="379" r="16" stroke="#e08214" stroke-width="2" fill="#fdb863"/>
		<text x="201" y="383" fill="#000" font-family="Verdana" font-size="12">DF</text>
	</g>
</g>

<!-- Entity HEURE -->
<g class="page_0_MR0pfgoy diagram_page" visibility="visible">
	<g>
		<rect x="98" y="26" width="52" height="25" fill="#b2abd2" stroke="#b2abd2" stroke-width="0" opacity="1"/>
		<rect x="98" y="51" width="52" height="25" fill="#d8daeb" stroke="#d8daeb" stroke-width="0" opacity="1"/>
		<rect x="98" y="26" width="52" height="50" fill="none" stroke="#8073ac" stroke-width="2" opacity="1"/>
		<line x1="98" y1="51" x2="150" y2="51" stroke="#8073ac" stroke-width="1"/>
	</g>
	<text x="103" y="43.75" fill="#000" font-family="Verdana" font-size="12">HEURE</text>
	<text x="103" y="68.8" fill="#000" font-family="Verdana" font-size="12">heure</text>
	<line x1="103" y1="71" x2="139" y2="71" stroke="#000" stroke-width="1"/>
</g>

<!-- Entity MONITEUR -->
<g class="page_0_MR0pfgoy diagram_page" visibility="visible">
	<g>
		<rect x="258" y="9" width="78" height="25" fill="#b2abd2" stroke="#b2abd2" stroke-width="0" opacity="1"/>
		<rect x="258" y="34" width="78" height="59" fill="#d8daeb" stroke="#d8daeb" stroke-width="0" opacity="1"/>
		<rect x="258" y="9" width="78" height="84" fill="none" stroke="#8073ac" stroke-width="2" opacity="1"/>
		<line x1="258" y1="34" x2="336" y2="34" stroke="#8073ac" stroke-width="1"/>
	</g>
	<text x="264" y="26.75" fill="#000" font-family="Verdana" font-size="12">MONITEUR</text>
	<text x="263" y="51.8" fill="#000" font-family="Verdana" font-size="12">idM</text>
	<line x1="263" y1="54" x2="285" y2="54" stroke="#000" stroke-width="1"/>
	<text x="263" y="68.8" fill="#000" font-family="Verdana" font-size="12">nomM</text>
	<text x="263" y="85.8" fill="#000" font-family="Verdana" font-size="12">prenomM</text>
</g>

<!-- Entity DATE -->
<g class="page_0_MR0pfgoy diagram_page" visibility="visible">
	<g>
		<rect x="16" y="144" width="44" height="25" fill="#b2abd2" stroke="#b2abd2" stroke-width="0" opacity="1"/>
		<rect x="16" y="169" width="44" height="25" fill="#d8daeb" stroke="#d8daeb" stroke-width="0" opacity="1"/>
		<rect x="16" y="144" width="44" height="50" fill="none" stroke="#8073ac" stroke-width="2" opacity="1"/>
		<line x1="16" y1="169" x2="60" y2="169" stroke="#8073ac" stroke-width="1"/>
	</g>
	<text x="22" y="161.75" fill="#000" font-family="Verdana" font-size="12">DATE</text>
	<text x="21" y="186.8" fill="#000" font-family="Verdana" font-size="12">date</text>
	<line x1="21" y1="189" x2="49" y2="189" stroke="#000" stroke-width="1"/>
</g>

<!-- Entity COURS -->
<g class="page_0_MR0pfgoy diagram_page" visibility="visible">
	<g>
		<rect x="183" y="118" width="54" height="25" fill="#b2abd2" stroke="#b2abd2" stroke-width="0" opacity="1"/>
		<rect x="183" y="143" width="54" height="77" fill="#d8daeb" stroke="#d8daeb" stroke-width="0" opacity="1"/>
		<rect x="183" y="118" width="54" height="102" fill="none" stroke="#8073ac" stroke-width="2" opacity="1"/>
		<line x1="183" y1="143" x2="237" y2="143" stroke="#8073ac" stroke-width="1"/>
	</g>
	<text x="188" y="135.75" fill="#000" font-family="Verdana" font-size="12">COURS</text>
	<text x="188" y="160.8" fill="#000" font-family="Verdana" font-size="12">idCou</text>
	<line x1="188" y1="163" x2="223" y2="163" stroke="#000" stroke-width="1"/>
	<text x="188" y="177.8" fill="#000" font-family="Verdana" font-size="12">nom</text>
	<text x="188" y="194.8" fill="#000" font-family="Verdana" font-size="12">#idcP</text>
	<text x="188" y="211.8" fill="#000" font-family="Verdana" font-size="12">#idcC</text>
</g>

<!-- Entity RESERVER -->
<g class="page_0_MR0pfgoy diagram_page" visibility="visible">
	<g>
		<rect x="86" y="245" width="76" height="25" fill="#b2abd2" stroke="#b2abd2" stroke-width="0" opacity="1"/>
		<rect x="86" y="270" width="76" height="25" fill="#d8daeb" stroke="#d8daeb" stroke-width="0" opacity="1"/>
		<rect x="86" y="245" width="76" height="50" fill="none" stroke="#8073ac" stroke-width="2" opacity="1"/>
		<line x1="86" y1="270" x2="162" y2="270" stroke="#8073ac" stroke-width="1"/>
	</g>
	<text x="92" y="262.75" fill="#000" font-family="Verdana" font-size="12">RESERVER</text>
	<text x="91" y="287.8" fill="#000" font-family="Verdana" font-size="12">duree</text>
	<line x1="91" y1="290" x2="127" y2="290" stroke="#000" stroke-width="1"/>
</g>

<!-- Entity PONEY -->
<g class="page_0_MR0pfgoy diagram_page" visibility="visible">
	<g>
		<rect x="9" y="320" width="58" height="25" fill="#b2abd2" stroke="#b2abd2" stroke-width="0" opacity="1"/>
		<rect x="9" y="345" width="58" height="93" fill="#d8daeb" stroke="#d8daeb" stroke-width="0" opacity="1"/>
		<rect x="9" y="320" width="58" height="118" fill="none" stroke="#8073ac" stroke-width="2" opacity="1"/>
		<line x1="9" y1="345" x2="67" y2="345" stroke="#8073ac" stroke-width="1"/>
	</g>
	<text x="17" y="337.75" fill="#000" font-family="Verdana" font-size="12">PONEY</text>
	<text x="14" y="362.8" fill="#000" font-family="Verdana" font-size="12">idPo</text>
	<line x1="14" y1="365" x2="40" y2="365" stroke="#000" stroke-width="1"/>
	<text x="14" y="379.8" fill="#000" font-family="Verdana" font-size="12">poidP</text>
	<text x="14" y="396.8" fill="#000" font-family="Verdana" font-size="12">nom</text>
	<text x="14" y="413.8" fill="#000" font-family="Verdana" font-size="12">prenom</text>
	<text x="14" y="430.8" fill="#000" font-family="Verdana" font-size="12">age</text>
</g>

<!-- Entity CLIENT -->
<g class="page_0_MR0pfgoy diagram_page" visibility="visible">
	<g>
		<rect x="175" y="420" width="70" height="25" fill="#b2abd2" stroke="#b2abd2" stroke-width="0" opacity="1"/>
		<rect x="175" y="445" width="70" height="93" fill="#d8daeb" stroke="#d8daeb" stroke-width="0" opacity="1"/>
		<rect x="175" y="420" width="70" height="118" fill="none" stroke="#8073ac" stroke-width="2" opacity="1"/>
		<line x1="175" y1="445" x2="245" y2="445" stroke="#8073ac" stroke-width="1"/>
	</g>
	<text x="188" y="437.75" fill="#000" font-family="Verdana" font-size="12">CLIENT</text>
	<text x="180" y="462.8" fill="#000" font-family="Verdana" font-size="12">idC</text>
	<line x1="180" y1="465" x2="200" y2="465" stroke="#000" stroke-width="1"/>
	<text x="180" y="479.8" fill="#000" font-family="Verdana" font-size="12">nomC</text>
	<text x="180" y="496.8" fill="#000" font-family="Verdana" font-size="12">prenomC</text>
	<text x="180" y="513.8" fill="#000" font-family="Verdana" font-size="12">poidC</text>
	<text x="180" y="530.8" fill="#000" font-family="Verdana" font-size="12">cotisation</text>
</g>

<!-- Entity COURS COLLECTIFS -->
<g class="page_0_MR0pfgoy diagram_page" visibility="visible">
	<g>
		<rect x="439" y="454" width="134" height="25" fill="#b2abd2" stroke="#b2abd2" stroke-width="0" opacity="1"/>
		<rect x="439" y="479" width="134" height="25" fill="#d8daeb" stroke="#d8daeb" stroke-width="0" opacity="1"/>
		<rect x="439" y="454" width="134" height="50" fill="none" stroke="#8073ac" stroke-width="2" opacity="1"/>
		<line x1="439" y1="479" x2="573" y2="479" stroke="#8073ac" stroke-width="1"/>
	</g>
	<text x="445" y="471.75" fill="#000" font-family="Verdana" font-size="12">COURS COLLECTIFS</text>
	<text x="444" y="496.8" fill="#000" font-family="Verdana" font-size="12">idcC </text>
	<line x1="444" y1="499" x2="475" y2="499" stroke="#000" stroke-width="1"/>
</g>

<!-- Entity COURS PARTICULIERS -->
<g class="page_0_MR0pfgoy diagram_page" visibility="visible">
	<g>
		<rect x="432" y="663" width="148" height="25" fill="#b2abd2" stroke="#b2abd2" stroke-width="0" opacity="1"/>
		<rect x="432" y="688" width="148" height="25" fill="#d8daeb" stroke="#d8daeb" stroke-width="0" opacity="1"/>
		<rect x="432" y="663" width="148" height="50" fill="none" stroke="#8073ac" stroke-width="2" opacity="1"/>
		<line x1="432" y1="688" x2="580" y2="688" stroke="#8073ac" stroke-width="1"/>
	</g>
	<text x="437" y="680.75" fill="#000" font-family="Verdana" font-size="12">COURS PARTICULIERS</text>
	<text x="437" y="705.8" fill="#000" font-family="Verdana" font-size="12">idcP </text>
	<line x1="437" y1="708" x2="466" y2="708" stroke="#000" stroke-width="1"/>
</g>

<!-- Link from &quot;idcC&quot; (COURS COLLECTIFS) to &quot;#idcC&quot; (COURS) -->
<path d="M439 492.5 C338 350 371.67 207.5 237 207.5" fill="none" stroke="#e08214" stroke-width="2"/>
<polygon points="237 207.5 249 201.5 245 207.5 249 213.5" fill="#e08214" stroke-width="0"/>
<circle cx="439" cy="492.5" r="2" stroke="#e08214" stroke-width="2" fill="#e08214"/>

<!-- Link from &quot;idcP&quot; (COURS PARTICULIERS) to &quot;#idcP&quot; (COURS) -->
<path d="M432 701.5 C334.5 446 367 190.5 237 190.5" fill="none" stroke="#e08214" stroke-width="2"/>
<polygon points="237 190.5 249 184.5 245 190.5 249 196.5" fill="#e08214" stroke-width="0"/>
<circle cx="432" cy="701.5" r="2" stroke="#e08214" stroke-width="2" fill="#e08214"/>
</svg>